<svg width="1200" height="720" viewBox="0 0 1200 720" fill="none" xmlns="http://www.w3.org/2000/svg">
  <defs>
    <linearGradient id="bg2" x1="0" y1="0" x2="1200" y2="720" gradientUnits="userSpaceOnUse">
      <stop stop-color="#0B1120"/>
      <stop offset="1" stop-color="#0F766E"/>
    </linearGradient>
  </defs>
  <rect width="1200" height="720" rx="24" fill="url(#bg2)"/>
  <rect x="90" y="80" width="1020" height="560" rx="24" fill="#0F172A" fill-opacity="0.62"/>
  <rect x="140" y="130" width="920" height="58" rx="12" fill="#1E293B"/>
  <rect x="170" y="149" width="260" height="20" rx="10" fill="#2DD4BF" fill-opacity="0.9"/>
  <rect x="140" y="220" width="420" height="370" rx="16" fill="#111827"/>
  <rect x="590" y="220" width="470" height="178" rx="16" fill="#111827"/>
  <rect x="590" y="412" width="470" height="178" rx="16" fill="#111827"/>
  <rect x="178" y="262" width="180" height="22" rx="8" fill="#E2E8F0"/>
  <rect x="178" y="302" width="320" height="18" rx="8" fill="#94A3B8"/>
  <rect x="178" y="332" width="280" height="18" rx="8" fill="#94A3B8"/>
  <rect x="178" y="372" width="140" height="34" rx="10" fill="#14B8A6"/>
  <text x="178" y="392" fill="#E2E8F0" font-family="Inter, Arial" font-size="16" font-weight="600">Submit</text>
  <circle cx="1010" cy="164" r="11" fill="#2DD4BF"/>
  <text x="620" y="292" fill="#E2E8F0" font-family="Inter, Arial" font-size="28" font-weight="600">Priority Dashboard</text>
  <text x="620" y="490" fill="#E2E8F0" font-family="Inter, Arial" font-size="28" font-weight="600">Status Tracking</text>
</svg>
