<svg width="1200" height="720" viewBox="0 0 1200 720" fill="none" xmlns="http://www.w3.org/2000/svg">
  <defs>
    <linearGradient id="bg" x1="0" y1="0" x2="1200" y2="720" gradientUnits="userSpaceOnUse">
      <stop stop-color="#0F172A"/>
      <stop offset="1" stop-color="#1D4ED8"/>
    </linearGradient>
    <linearGradient id="card" x1="180" y1="160" x2="1020" y2="560" gradientUnits="userSpaceOnUse">
      <stop stop-color="#111827"/>
      <stop offset="1" stop-color="#1F2937"/>
    </linearGradient>
  </defs>
  <rect width="1200" height="720" rx="24" fill="url(#bg)"/>
  <rect x="80" y="80" width="1040" height="560" rx="24" fill="#0B1120" fill-opacity="0.45"/>
  <rect x="120" y="130" width="960" height="64" rx="14" fill="#1E293B"/>
  <rect x="148" y="152" width="360" height="20" rx="10" fill="#38BDF8" fill-opacity="0.8"/>
  <rect x="120" y="230" width="960" height="370" rx="20" fill="url(#card)"/>
  <rect x="160" y="268" width="220" height="290" rx="14" fill="#334155"/>
  <rect x="412" y="268" width="220" height="290" rx="14" fill="#334155"/>
  <rect x="664" y="268" width="220" height="290" rx="14" fill="#334155"/>
  <rect x="916" y="268" width="124" height="290" rx="14" fill="#334155"/>
  <circle cx="998" cy="168" r="12" fill="#38BDF8"/>
  <text x="168" y="340" fill="#E2E8F0" font-family="Inter, Arial" font-size="34" font-weight="600">React Movies</text>
  <text x="168" y="382" fill="#94A3B8" font-family="Inter, Arial" font-size="22">Search • Browse • Details</text>
</svg>
